<svg width="40" height="40" viewBox="0 0 40 40" fill="none" xmlns="http://www.w3.org/2000/svg">
<g id="logo" clip-path="url(#clip0_1_68)">
<g id="Group">
<path id="Vector" d="M21.5016 23.9452H18.5089C18.3669 23.9449 18.2279 23.9876 18.1097 24.0677C17.9915 24.1479 17.8994 24.262 17.845 24.3955C17.7906 24.529 17.7764 24.6759 17.8042 24.8177C17.832 24.9594 17.9005 25.0895 18.0011 25.1916L19.4974 26.7124C19.6319 26.8492 19.8143 26.9261 20.0045 26.9261C20.1947 26.9261 20.3772 26.8492 20.5117 26.7124L22.008 25.1916C22.1085 25.0896 22.177 24.9596 22.2048 24.818C22.2326 24.6764 22.2186 24.5296 22.1643 24.3962C22.1101 24.2627 22.0182 24.1486 21.9002 24.0683C21.7822 23.9881 21.6435 23.9452 21.5016 23.9452ZM12.1147 19.7038C12.1147 19.2199 12.3037 18.7559 12.64 18.4137C12.9763 18.0716 13.4324 17.8794 13.908 17.8794C14.3836 17.8794 14.8398 18.0716 15.1761 18.4137C15.5124 18.7559 15.7013 19.2199 15.7013 19.7038V21.8931C15.7013 22.3769 15.5124 22.841 15.1761 23.1831C14.8398 23.5253 14.3836 23.7175 13.908 23.7175C13.4324 23.7175 12.9763 23.5253 12.64 23.1831C12.3037 22.841 12.1147 22.3769 12.1147 21.8931V19.7038ZM24.3092 19.7038C24.3092 19.4642 24.3555 19.227 24.4457 19.0056C24.5358 18.7843 24.6679 18.5831 24.8344 18.4137C25.0009 18.2443 25.1986 18.1099 25.4162 18.0182C25.6338 17.9266 25.867 17.8794 26.1025 17.8794C26.338 17.8794 26.5711 17.9266 26.7887 18.0182C27.0063 18.1099 27.204 18.2443 27.3705 18.4137C27.537 18.5831 27.6691 18.7843 27.7592 19.0056C27.8494 19.227 27.8958 19.4642 27.8958 19.7038V21.8931C27.8958 22.3769 27.7068 22.841 27.3705 23.1831C27.0342 23.5253 26.5781 23.7175 26.1025 23.7175C25.6268 23.7175 25.1707 23.5253 24.8344 23.1831C24.4981 22.841 24.3092 22.3769 24.3092 21.8931V19.7038ZM13.8191 28.1866C15.466 29.8169 17.8978 30.1248 20.0282 28.1866C21.9549 30.0577 24.7238 29.8504 26.3492 28.1866C26.3607 30.3116 25.1111 34.5603 20.0282 34.5603C14.9438 34.5603 13.7703 30.3116 13.8191 28.1866ZM34.8451 13.5402V7.32696C34.8452 7.11827 34.7865 6.91393 34.6762 6.738C34.5658 6.56208 34.4084 6.42191 34.2223 6.33402C34.0363 6.24613 33.8294 6.21418 33.6261 6.24193C33.4228 6.26968 33.2315 6.35598 33.0748 6.49065L29.8755 9.23603C29.7186 9.37083 29.5919 9.53834 29.5041 9.72725C29.4163 9.91615 29.3694 10.122 29.3665 10.331C29.3636 10.5399 29.4049 10.7471 29.4876 10.9384C29.5702 11.1297 29.6922 11.3007 29.8454 11.4399L33.0518 14.3561C33.2067 14.4969 33.3982 14.5892 33.6035 14.6217C33.8087 14.6543 34.0188 14.6257 34.2084 14.5394C34.398 14.4532 34.559 14.3129 34.672 14.1356C34.785 13.9583 34.8451 13.7515 34.8451 13.5402ZM5.16535 7.32696V13.5402C5.16507 13.7516 5.22499 13.9586 5.33787 14.1361C5.45075 14.3137 5.61175 14.4542 5.80141 14.5406C5.99108 14.627 6.20129 14.6558 6.40666 14.6233C6.61202 14.5908 6.80374 14.4985 6.95864 14.3575L10.1651 11.4399C10.3183 11.3007 10.4403 11.1297 10.5229 10.9384C10.6056 10.7471 10.6468 10.5399 10.644 10.331C10.6411 10.122 10.5942 9.91615 10.5064 9.72725C10.4186 9.53834 10.2919 9.37083 10.1349 9.23603L6.93569 6.49065C6.77899 6.35598 6.58771 6.26968 6.3844 6.24193C6.18109 6.21418 5.97422 6.24613 5.78817 6.33402C5.60212 6.42191 5.44464 6.56208 5.33429 6.738C5.22394 6.91393 5.16532 7.11827 5.16535 7.32696Z" fill="#4ECB71"/>
<path id="Vector_2" d="M31.6 40C35.155 40 37.9956 37.1495 38.5551 33.7094L38.9783 33.9108C39.0637 33.9515 39.156 33.9746 39.2502 33.9789C39.3443 33.9832 39.4384 33.9686 39.5269 33.936C39.6155 33.9033 39.6969 33.8532 39.7665 33.7886C39.8361 33.7239 39.8924 33.6459 39.9324 33.5591C39.9723 33.4723 39.995 33.3783 39.9993 33.2825C40.0035 33.1868 39.9892 33.0911 39.9571 33.001C39.925 32.9108 39.8757 32.828 39.8122 32.7572C39.7486 32.6865 39.672 32.6291 39.5866 32.5885L38.6555 32.1477V25.8265L39.5866 25.3828C39.672 25.3422 39.7486 25.2848 39.8122 25.2141C39.8757 25.1433 39.925 25.0605 39.9571 24.9704C39.9892 24.8802 40.0035 24.7846 39.9993 24.6888C39.995 24.593 39.9723 24.4991 39.9324 24.4122C39.8924 24.3254 39.8361 24.2474 39.7665 24.1828C39.6969 24.1181 39.6155 24.068 39.5269 24.0353C39.4384 24.0027 39.3443 23.9881 39.2502 23.9924C39.156 23.9967 39.0637 24.0198 38.9783 24.0605L38.6555 24.2152V3.54095C38.6555 0.254093 34.7648 -1.1237 32.6387 1.05246L27.3864 6.43082H12.6441L7.38472 1.18527C5.26146 -0.964614 1.35494 0.382532 1.35494 3.68253V24.2137L1.03071 24.059C0.945142 24.0167 0.852164 23.9922 0.757186 23.9868C0.662208 23.9814 0.567127 23.9953 0.477477 24.0277C0.387827 24.06 0.305398 24.1102 0.234989 24.1753C0.164579 24.2404 0.107594 24.319 0.0673516 24.4067C0.0271089 24.4944 0.00441207 24.5894 0.000581777 24.6861C-0.00324852 24.7828 0.0118642 24.8793 0.0450407 24.97C0.0782172 25.0607 0.128794 25.1437 0.193829 25.2144C0.258864 25.285 0.337057 25.3418 0.423857 25.3814L1.35494 25.825V32.1448L0.422422 32.5885C0.337077 32.6291 0.260435 32.6865 0.196871 32.7572C0.133307 32.828 0.0840669 32.9108 0.0519613 33.001C0.0198556 33.0911 0.00551342 33.1868 0.0097537 33.2825C0.013994 33.3783 0.0367337 33.4723 0.0766743 33.5591C0.116615 33.6459 0.172975 33.7239 0.242535 33.7886C0.312095 33.8532 0.393495 33.9033 0.482085 33.936C0.570675 33.9686 0.664721 33.9832 0.758855 33.9789C0.852988 33.9746 0.945364 33.9515 1.03071 33.9108L1.43384 33.7196C1.94314 37.2298 4.84541 40 8.41049 40H31.6ZM35.396 2.9659C35.5136 3.00618 35.6151 3.08413 35.6855 3.18806C35.7558 3.292 35.7912 3.41632 35.7862 3.54241V25.5784L33.4191 26.7051C33.3338 26.7458 33.2571 26.8031 33.1935 26.8739C33.13 26.9447 33.0807 27.0275 33.0486 27.1176C33.0165 27.2077 33.0022 27.3034 33.0064 27.3992C33.0107 27.4949 33.0334 27.5889 33.0733 27.6757C33.1133 27.7626 33.1696 27.8405 33.2392 27.9052C33.3088 27.9699 33.3902 28.02 33.4788 28.0526C33.5673 28.0853 33.6614 28.0999 33.7555 28.0956C33.8497 28.0912 33.942 28.0681 34.0274 28.0275L35.7862 27.1897V30.7802L34.0274 29.9438C33.9417 29.8992 33.848 29.8726 33.7519 29.8657C33.6559 29.8587 33.5594 29.8714 33.4683 29.9032C33.3772 29.9349 33.2934 29.985 33.2217 30.0504C33.15 30.1158 33.092 30.1952 33.0512 30.284C33.0103 30.3727 32.9875 30.4688 32.9839 30.5667C32.9804 30.6646 32.9962 30.7622 33.0306 30.8538C33.0649 30.9453 33.117 31.0288 33.1838 31.0994C33.2505 31.17 33.3305 31.2263 33.4191 31.2647L35.7862 32.3915V32.4703C35.7862 35.0172 33.8064 37.0809 31.6 37.0809H8.41049C6.15811 37.0809 4.22421 35.1179 4.22421 32.6177V32.3915L6.59137 31.2647C6.75691 31.1786 6.88311 31.0304 6.94336 30.8514C7.0036 30.6725 6.99318 30.4767 6.91429 30.3054C6.83541 30.1341 6.69422 30.0006 6.52049 29.9332C6.34677 29.8657 6.15409 29.8696 5.98308 29.9438L4.22421 30.7802V27.1897L5.98308 28.0275C6.06865 28.0698 6.16162 28.0943 6.2566 28.0997C6.35158 28.1051 6.44666 28.0912 6.53631 28.0588C6.62596 28.0265 6.70839 27.9763 6.7788 27.9112C6.84921 27.8461 6.90619 27.7675 6.94644 27.6798C6.98668 27.5921 7.00938 27.4971 7.01321 27.4004C7.01704 27.3037 7.00192 27.2072 6.96875 27.1165C6.93557 27.0258 6.88499 26.9427 6.81996 26.8721C6.75492 26.8015 6.67673 26.7447 6.58993 26.7051L4.22421 25.5784V3.68253C4.22029 3.5562 4.25677 3.43198 4.32817 3.32855C4.39957 3.22512 4.50204 3.14805 4.62017 3.10893C4.74396 3.05494 4.88083 3.03999 5.01306 3.06601C5.1453 3.09203 5.26681 3.15783 5.36188 3.25489L11.472 9.34988H28.5801L34.6744 3.11039C34.7663 3.01497 34.8844 2.9501 35.0132 2.92431C35.142 2.89851 35.2755 2.91301 35.396 2.9659Z" fill="#4ECB71"/>
</g>
</g>
<defs>
<clipPath id="clip0_1_68">
<rect width="40" height="40" fill="white"/>
</clipPath>
</defs>
</svg>
